<svg id="Layer_1" data-name="Layer 1" xmlns="http://www.w3.org/2000/svg" viewBox="0 0 280 300"><defs><style>.cls-1{fill:#008457;}.cls-1,.cls-2,.cls-3{fill-rule:evenodd;}.cls-2{fill:#fff;}.cls-3{fill:#ed1b2e;}</style></defs><title>castrol logo</title><path class="cls-1" d="M221.15,130.66H85.73a71.09,71.09,0,0,0-9,.35c-5.48.64-10.32,3-13.29,6.49a19,19,0,0,0,12.33,31.42,54.77,54.77,0,0,0,8.9.4h125.8l10.72-38.65Z"/><path class="cls-2" d="M209.75,168.44H86.53c-7.53,0-15.35.5-21.24-5.25A18.49,18.49,0,0,1,64,138.06c3.08-3.65,7.94-5.62,12.76-6.2a72.28,72.28,0,0,1,8.93-.33H220l-10.25,36.91Z"/><path class="cls-3" d="M191.86,156.74a7.06,7.06,0,0,0-.19,1.38c0,1.13.89,1.36,1.84,1.36h1.9l-.77,3.26h-3.79a7.93,7.93,0,0,1-2.7-.34A3.41,3.41,0,0,1,186,159a10.34,10.34,0,0,1,.34-2.36c.23-1,5.35-19.37,5.35-19.37l5.83-1.1s-5.47,19.72-5.67,20.54ZM160,142.05H155.9l1.59-5.85-5.85,1-1.3,4.9h-2l-.91,3.22h2s-3.11,11.36-3.35,12.31a9,9,0,0,0-.3,2,3,3,0,0,0,2.27,3,8.43,8.43,0,0,0,2.28.23h4l.91-3.26h-2.06c-.91,0-1.75-.08-1.75-1.13a5.24,5.24,0,0,1,.16-1c.12-.45,3.34-12.11,3.34-12.11H159l.92-3.22Zm-13.09-.11a15.45,15.45,0,0,0-4.41-.62c-4.29,0-8.84,2.32-8.88,7.15,0,4.37,5.27,5.84,5.25,8.32,0,2-1.81,2.76-3.56,2.76A16.18,16.18,0,0,1,131,159l-1,3.34a20.37,20.37,0,0,0,5.8.82c4.33,0,8.35-2.46,8.39-7.15s-5-5.68-4.95-8.33c0-2,2.09-2.66,3.78-2.66a14.1,14.1,0,0,1,2.82.26l1-3.33Zm-30.52-1c0-3.76-2.55-5.09-6-5.09a11,11,0,0,0-8.58,4.21c-3.08,3.68-5.62,11.47-5.62,16.22,0,5,2,7.38,7.09,7.38,7,0,8.74-5.72,10.38-11.38l-6.08,1.16c-.49,1.58-1.71,6.18-3.84,6.18-1.29,0-1.55-1.2-1.55-2.28,0-3.19,1.9-9.26,3-12.3.61-1.6,2.17-5.28,4.3-5.28a1.14,1.14,0,0,1,1,.51,1.89,1.89,0,0,1,.24,1.06,7.4,7.4,0,0,1-.12,1c-.14.76-1.26,4.77-1.26,4.77l5.86-1a20.57,20.57,0,0,0,1.14-5.16Zm56.35,1a8.32,8.32,0,0,0-3.49-.56,17,17,0,0,0-7.37,1.52l-5.51,19.86h5.54l4.74-17.28a7.21,7.21,0,0,1,2.52-.42c.7,0,1.1,0,1.44.06l2.13-3.18Zm-41.25,7.57-3.53,12.8a30.79,30.79,0,0,1-7.6,1c-3.27,0-6.5-1.58-6.5-5.28,0-6.42,6.92-8.24,12.08-8.73a8.55,8.55,0,0,0,.54-2.58c0-1.45-1.26-1.79-2.48-1.79a20.77,20.77,0,0,0-5.66,1l.92-3.5a18,18,0,0,1,6.3-1.1c3.12,0,6.46,1,6.46,4.71a13.13,13.13,0,0,1-.53,3.46Zm-11.89,7.82c0,1.3.61,2.32,2,2.32a7.45,7.45,0,0,0,1.56-.11l1.86-6.79c-2.58.3-5.43,1.55-5.43,4.58Zm65.15-3.07c-1.79,5-4.72,9-10.48,9-4,0-6.27-1.92-6.27-6a17.83,17.83,0,0,1,1-5.47c1.64-4.79,5.17-10.37,10.82-10.37,4.22,0,6.27,2.13,6.27,6.31a22,22,0,0,1-1.36,6.57ZM179.58,145a2,2,0,0,0-1.46.69c-1.44,1.42-3.12,5.75-3.93,9.1a14.45,14.45,0,0,0-.55,3.48c0,.9.4,1.4,1.1,1.4a2.43,2.43,0,0,0,1.57-.82,11.44,11.44,0,0,0,1.86-3.35,32.89,32.89,0,0,0,2.42-9.13c0-.69-.2-1.37-1-1.37Z"/><path class="cls-1" d="M70.54,144.57H92.62a15.29,15.29,0,0,0-14.3-9.85A12.52,12.52,0,0,0,73,135.83l-2.45,8.74Z"/><path class="cls-1" d="M69.52,154.56a5.77,5.77,0,0,1-2.4-.38,2.71,2.71,0,0,1-1.62-2.62,13.09,13.09,0,0,1,.72-3.55l2.94-10.24a15.28,15.28,0,1,0,23.75,16.79Z"/><path class="cls-3" d="M71.54,151.75a.25.25,0,0,1,.25-.25h.6a.25.25,0,1,1,0,.49h-.6a.25.25,0,0,1-.25-.24Z"/><path class="cls-3" d="M69.17,149.58a.25.25,0,0,1,.25-.25H70a.25.25,0,0,1,.25.25.24.24,0,0,1-.25.24h-.6a.24.24,0,0,1-.25-.24Z"/><path class="cls-3" d="M73.13,150.65a.35.35,0,0,1,.36-.35h1a.35.35,0,0,1,.35.35.36.36,0,0,1-.35.36h-1a.36.36,0,0,1-.36-.36Z"/><path class="cls-3" d="M76.24,151.2H75.15a.54.54,0,1,0,0,1.07h.77l.32-1.07Z"/><path class="cls-3" d="M72.18,149.58a.25.25,0,0,1,.25-.25H73a.25.25,0,0,1,.25.25.23.23,0,0,1-.25.24h-.6a.24.24,0,0,1-.25-.24Z"/><path class="cls-3" d="M69.82,147.41a.25.25,0,0,1,.24-.25h.61a.25.25,0,0,1,0,.5h-.61a.25.25,0,0,1-.24-.25Z"/><path class="cls-3" d="M73.77,148.47a.36.36,0,0,0,.35.36h1a.36.36,0,0,0,.36-.36.35.35,0,0,0-.36-.35h-1a.35.35,0,0,0-.35.35Z"/><path class="cls-3" d="M75.82,150.12h.74l.32-1.11H75.82a.56.56,0,0,0-.54.56.55.55,0,0,0,.54.55Z"/><path class="cls-3" d="M72.83,147.41a.25.25,0,0,1,.24-.25h.61a.25.25,0,0,1,0,.5h-.61a.24.24,0,0,1-.24-.25Z"/><path class="cls-3" d="M77.45,146.86h-1a.55.55,0,0,0-.54.55.54.54,0,0,0,.54.53h.76l.31-1.08Z"/><path class="cls-3" d="M68.53,151.75a.25.25,0,0,1,.25-.25h.6a.25.25,0,1,1,0,.49h-.6a.25.25,0,0,1-.25-.24Z"/><path class="cls-3" d="M71,148.48a.25.25,0,0,1,.25-.25h.61a.25.25,0,0,1,.25.25.25.25,0,0,1-.25.24h-.61a.25.25,0,0,1-.25-.24Z"/><path class="cls-3" d="M70.33,150.64a.25.25,0,0,1,.25-.24h.6a.25.25,0,0,1,.25.24.25.25,0,0,1-.25.26h-.6a.25.25,0,0,1-.25-.26Z"/><path class="cls-3" d="M93.46,149.72a15.07,15.07,0,0,0-.28-2.86H78.41a.57.57,0,0,1,.42.55.53.53,0,0,1-.54.53H77.2L76.88,149h.79a.56.56,0,0,1,0,1.11H76.56l-.32,1.08H77a.53.53,0,0,1,.54.54.54.54,0,0,1-.46.53H93.24a15.4,15.4,0,0,0,.22-2.55Zm-10.75-1.54h.67a.3.3,0,1,1,0,.59h-.67a.3.3,0,1,1,0-.59Zm-1.39-1H82a.3.3,0,0,1,.3.3.31.31,0,0,1-.3.3h-.68a.31.31,0,0,1-.3-.3.3.3,0,0,1,.3-.3Zm-2.26.92h1.1a.41.41,0,1,1,0,.81h-1.1a.41.41,0,1,1,0-.81Zm-.64,3a.41.41,0,1,1,0-.81h1.11a.41.41,0,0,1,0,.81Zm2.31.93h-.68a.31.31,0,0,1-.3-.29.3.3,0,0,1,.3-.3h.68a.29.29,0,0,1,.29.3.3.3,0,0,1-.29.29Zm.64-2.12h-.68a.29.29,0,0,1-.3-.3.3.3,0,0,1,.3-.3h.68a.3.3,0,0,1,.29.3.29.29,0,0,1-.29.3ZM82.75,151h-.68a.29.29,0,0,1-.3-.3.29.29,0,0,1,.3-.29h.68a.28.28,0,0,1,.29.29.29.29,0,0,1-.29.3Zm1.37,1h-.67a.3.3,0,0,1-.3-.29.29.29,0,0,1,.3-.3h.67a.29.29,0,0,1,.3.3.3.3,0,0,1-.3.29Zm.64-2.12h-.67a.3.3,0,0,1-.31-.3.31.31,0,0,1,.31-.3h.67a.31.31,0,0,1,.3.3.3.3,0,0,1-.3.3Zm.64-2.12h-.68a.31.31,0,0,1-.3-.3.3.3,0,0,1,.3-.3h.68a.29.29,0,0,1,.29.3.3.3,0,0,1-.29.3Z"/></svg>